<?xml version="1.0" encoding="UTF-8"?>
<svg width="30px" height="14px" viewBox="0 0 30 14" version="1.1" xmlns="http://www.w3.org/2000/svg" xmlns:xlink="http://www.w3.org/1999/xlink">
    <!-- Generator: sketchtool 47 (45396) - http://www.bohemiancoding.com/sketch -->
    <title>30B9506E-D26D-49FF-8BB1-41619C41E44D</title>
    <desc>Created with sketchtool.</desc>
    <defs></defs>
    <g id="Symbols" stroke="none" stroke-width="1" fill="none" fill-rule="evenodd">
        <g id="Organisms/Checkout/Payment/Card-unlogin" transform="translate(-298.000000, -29.000000)" fill-rule="nonzero" fill="#000000">
            <g id="Payment-icons">
                <g transform="translate(180.000000, 29.000000)">
                    <path d="M125.686321,5.79843898 C125.702183,7.44993244 127.186702,7.99939495 127.203131,8.00645382 C127.190668,8.04541879 126.96605,8.78970615 126.421358,9.55884073 C125.950028,10.223504 125.461136,10.8859085 124.690976,10.8997439 C123.934129,10.9132969 123.691099,10.4666115 122.825484,10.4666115 C121.960435,10.4666115 121.68993,10.8859085 120.973587,10.9132969 C120.230336,10.940403 119.664117,10.1941391 119.189105,9.53173467 C118.218403,8.17643144 117.476568,5.70300305 118.472763,4.03315653 C118.967602,3.20388036 119.851629,2.67870036 120.811568,2.66542968 C121.541506,2.65187665 122.230656,3.13950346 122.67706,3.13950346 C123.122897,3.13950346 123.960471,2.55305246 124.841099,2.63917068 C125.209326,2.65413549 126.243759,2.7828893 126.907983,3.72171914 C126.854165,3.75390759 125.673291,4.41772382 125.686321,5.79843898 L125.686321,5.79843898 Z M124.263833,1.74269407 C124.658402,1.28132626 124.924375,0.639251356 124.851863,0 C124.282811,0.0220236775 123.594794,0.365931872 123.186912,0.827017324 C122.820952,1.23530242 122.500878,1.88867152 122.587269,2.51521691 C123.221752,2.56265252 123.869264,2.20406188 124.264117,1.74241171 L124.263833,1.74269407 Z M129.976727,0.952947583 C130.298158,0.899845163 130.620999,0.855592736 130.944879,0.820240808 C131.331735,0.779221391 131.720575,0.759614699 132.109608,0.761511002 C132.714633,0.761511002 133.236098,0.832664421 133.674571,0.97497126 C134.11361,1.1172781 134.473623,1.32113829 134.755741,1.58626949 C135.000022,1.82471439 135.193058,2.11022978 135.323093,2.42542807 C135.459053,2.74928907 135.526467,3.12256217 135.526467,3.54468265 C135.526467,4.0551802 135.433844,4.50186556 135.247182,4.88473872 C135.067807,5.25888749 134.806916,5.58840716 134.483536,5.84926285 C134.16063,6.1090293 133.777674,6.30300708 133.334103,6.43091382 C132.890248,6.55825585 132.406455,6.62206805 131.881874,6.62206805 C131.408278,6.62206805 131.010027,6.58790311 130.687687,6.51929089 L130.687687,10.7602606 L129.976727,10.7602606 L129.976727,0.952947583 Z M130.687687,5.90093379 C130.859054,5.94978117 131.050532,5.98422847 131.262404,6.00371095 C131.474276,6.02347579 131.700877,6.03307585 131.942773,6.03307585 C132.850027,6.03307585 133.553339,5.82695682 134.052428,5.41471875 C134.551233,5.00248069 134.801061,4.39852369 134.801061,3.60341246 C134.801061,3.2205393 134.73563,2.88651352 134.604485,2.60189984 C134.480027,2.32555404 134.287611,2.08499312 134.045063,1.90250691 C133.803167,1.72067039 133.51595,1.58344594 133.18313,1.48998649 C132.850027,1.39680939 132.482083,1.35022084 132.07845,1.35022084 C131.756111,1.35022084 131.478808,1.3623621 131.246825,1.38692697 C131.015125,1.41149184 130.828463,1.43859791 130.687404,1.46796281 L130.687404,5.90093379 L130.687687,5.90093379 Z M141.180728,9.08194341 C141.180728,9.36655709 141.185543,9.65145312 141.19574,9.9360668 C141.205654,10.2206805 141.235678,10.4951294 141.28638,10.7605429 L140.621023,10.7605429 L140.51537,9.75903031 L140.484496,9.75903031 C140.393856,9.89681947 140.278006,10.0340439 140.136947,10.1712684 C139.995888,10.3084928 139.832169,10.4338584 139.645789,10.5468003 C139.459127,10.6597423 139.247538,10.7506605 139.010457,10.8192727 C138.756982,10.8900577 138.494738,10.9247544 138.231516,10.9223323 C137.878868,10.9223323 137.568708,10.8658613 137.301036,10.7529193 C137.03393,10.6399774 136.814694,10.4928705 136.643327,10.3113164 C136.473182,10.1312224 136.342053,9.91813934 136.258105,9.6853357 C136.174065,9.45907875 136.130539,9.2198675 136.129509,8.97860154 C136.129509,8.14424299 136.489805,7.50132102 137.210679,7.04955327 C137.931553,6.59778553 139.018105,6.38178408 140.470334,6.40154892 L140.470334,6.21011234 C140.470334,6.02319343 140.452489,5.80945082 140.417366,5.56916685 C140.381955,5.32848861 140.302354,5.09637581 140.18255,4.88445637 C140.061602,4.66873727 139.880321,4.48718311 139.638425,4.34007624 C139.396528,4.19268701 139.068523,4.1189924 138.655543,4.1189924 C138.342551,4.1189924 138.032957,4.16558095 137.725346,4.25875804 C137.417735,4.35193514 137.138167,4.48181837 136.886073,4.64897243 L136.659189,4.13339249 C136.981529,3.9176734 137.314632,3.7632253 137.657083,3.6700482 C138.007161,3.57591847 138.368301,3.52891273 138.730888,3.53028256 C139.235075,3.53028256 139.645789,3.61357723 139.963597,3.78044894 C140.281122,3.94732065 140.530666,4.16332211 140.71223,4.42817095 C140.895318,4.69695705 141.021393,5.00019369 141.082723,5.31928282 C141.147582,5.64169274 141.180596,5.96966151 141.181294,6.2984894 L141.181294,9.08194341 L141.180728,9.08194341 Z M140.469767,6.97614102 C140.068349,6.96677959 139.666729,6.98148858 139.267082,7.02018837 C138.849004,7.05915334 138.463216,7.14555392 138.110568,7.27769598 C137.757354,7.41040276 137.465322,7.60409818 137.233622,7.85934695 C137.001923,8.11459573 136.885506,8.45342154 136.885506,8.87582438 C136.885506,9.3758748 137.031664,9.74434786 137.324546,9.9798318 C137.616295,10.2153157 137.944016,10.3333401 138.307144,10.3333401 C138.599459,10.3333401 138.86175,10.2943751 139.093449,10.2153157 C139.325432,10.1368211 139.526541,10.0312204 139.698191,9.89907831 C139.869841,9.76693625 140.013166,9.61672347 140.129299,9.45013412 C140.245432,9.2826977 140.333523,9.11130831 140.394422,8.93427183 C140.444841,8.73775286 140.470334,8.59544602 140.470334,8.5067866 L140.470334,6.97614102 L140.469767,6.97614102 Z M142.570924,3.69178952 L144.415456,8.28626747 C144.518303,8.54629442 144.614264,8.80897542 144.703239,9.07403747 C144.79388,9.3439687 144.874606,9.5921586 144.945136,9.81776012 L144.975444,9.81776012 C145.046257,9.60204102 145.1267,9.35893351 145.21734,9.08871992 C145.308264,8.81907105 145.409101,8.54151625 145.519853,8.25633786 L147.244286,3.69150717 L148,3.69150717 L145.898276,8.87554202 C145.705838,9.3763784 145.506599,9.8745922 145.300616,10.3700462 C145.130887,10.7812237 144.941651,11.1841279 144.733547,11.5773955 C144.560132,11.9063212 144.365508,12.2236947 144.1509,12.5275195 C143.962032,12.7938569 143.741151,13.0361328 143.49319,13.2489361 C143.211355,13.4940201 142.951331,13.6735978 142.714249,13.7865397 C142.477451,13.8994817 142.318831,13.9706351 142.238104,14 L141.995641,13.4256903 C142.203045,13.3339808 142.405131,13.2307595 142.600949,13.1165117 C142.837763,12.9773625 143.056151,12.8091806 143.25101,12.6158966 C143.432858,12.4391424 143.631983,12.2064821 143.848671,11.9162213 C144.065358,11.6268076 144.259385,11.2758405 144.431035,10.8633201 C144.491367,10.7063308 144.521675,10.6029889 144.521675,10.5538592 C144.521675,10.4855293 144.491651,10.3821874 144.431035,10.2446806 L141.81436,3.69122481 L142.570924,3.69122481 L142.570924,3.69178952 Z" id="Apple-pay"></path>
                </g>
            </g>
        </g>
    </g>
</svg>