<?xml version="1.0" encoding="UTF-8"?>
<svg width="22px" height="14px" viewBox="0 0 22 14" version="1.1" xmlns="http://www.w3.org/2000/svg" xmlns:xlink="http://www.w3.org/1999/xlink">
    <!-- Generator: sketchtool 47 (45396) - http://www.bohemiancoding.com/sketch -->
    <title>F5D23704-B2A4-44ED-918A-7FD65AC6BF12</title>
    <desc>Created with sketchtool.</desc>
    <defs></defs>
    <g id="Symbols" stroke="none" stroke-width="1" fill="none" fill-rule="evenodd">
        <g id="Organisms/Checkout/Payment/Card-unlogin" transform="translate(-222.000000, -29.000000)">
            <g id="Payment-icons">
                <g transform="translate(180.000000, 29.000000)">
                    <g id="Mastercard" transform="translate(42.000000, 0.000000)">
                        <polyline id="Fill-2" fill="#F1AD3D" points="14.8506686 13.1840734 15.1870264 13.1751303 15.5190764 13.1507722 15.8446064 13.1086455 16.167808 13.0507507 16.482161 12.9774409 16.7923227 12.8884807 17.0957317 12.7841054 17.3926207 12.6663154 17.6827569 12.5329927 17.9642776 12.3884912 18.2369498 12.2284569 18.5029856 12.0573614 18.7580773 11.8729689 19.0043205 11.6773976 19.2418318 11.4706474 19.4682824 11.250718 19.686001 11.0217277 19.8904469 10.7816763 20.0839487 10.5327994 20.2665064 10.2750971 20.4357913 10.0060983 20.5941321 9.73050985 20.7369881 9.44609596 20.8690164 9.15273898 20.9855599 8.85267468 21.0888307 8.54602073 21.1768496 8.23265947 21.2493836 7.91482665 21.3065493 7.58816842 21.3483466 7.25927441 21.3725635 6.92367309 21.3812955 6.58371789 21.3725635 6.24588079 21.3483466 5.91251523 21.3065493 5.58362123 21.2493836 5.26131687 21.1768496 4.94348406 21.0888307 4.63247623 20.9855599 4.32570461 20.8690164 4.02787609 20.7369881 3.73675488 20.5941321 3.452341 20.4357913 3.1789883 20.2665064 2.91010716 20.0839487 2.6522872 19.8904469 2.40552844 19.686001 2.16559468 19.4682824 1.9367221 19.2418318 1.71879305 19.0043205 1.51216054 18.7580773 1.31658922 18.5029856 1.13219676 18.2369498 0.960983603 17.9642776 0.803185083 17.6827569 0.658801203 17.3926207 0.525478516 17.0957317 0.40768857 16.7923227 0.30319559 16.482161 0.214353023 16.167808 0.140925524 15.8446064 0.083148437 15.5190764 0.0409040905 15.1870264 0.0165459297 14.8506686 0.00760283688 14.5164065 0.0165459297 14.1844729 0.0409040905 13.8589428 0.083148437 13.5379534 0.140925524 13.2234839 0.214353023 12.9134386 0.30319559 12.6122418 0.40768857 12.3153528 0.525478516 12.0273122 0.658801203 11.7481201 0.803185083 11.475448 0.960983603 11.2115078 1.13219676 10.9564161 1.31658922 10.7101729 1.51216054 10.4748738 1.71879305 10.2484231 1.9367221 10.0329166 2.16559468 9.8284707 2.40552844 9.63496891 2.6522872 9.45462339 2.91010716 9.28533844 3.1789883 9.12920974 3.452341 8.98414162 3.73675488 8.85432544 4.02787609 8.73778195 4.32570461 8.63672326 4.63247623 8.5487044 4.94348406 8.47617034 5.26131687 8.41900465 5.58362123 8.37720733 5.91251523 8.3529905 6.24588079 8.34425847 6.58371789 8.3529905 6.92367309 8.37720733 7.25927441 8.41900465 7.58816842 8.47617034 7.91482665 8.5487044 8.23265947 8.63672326 8.54602073 8.73778195 8.85267468 8.85432544 9.15273898 8.98414162 9.44609596 9.12920974 9.73050985 9.28533844 10.0060983 9.45462339 10.2750971 9.63496891 10.5327994 9.8284707 10.7816763 10.0329166 11.0217277 10.2484231 11.250718 10.4748738 11.4706474 10.7101729 11.6773976 10.9564161 11.8729689 11.2115078 12.0573614 11.475448 12.2284569 11.7481201 12.3884912 12.0273122 12.5329927 12.3153528 12.6663154 12.6122418 12.7841054 12.9134386 12.8884807 13.2234839 12.9774409 13.5379534 13.0507507 13.8589428 13.1086455 14.1844729 13.1507722 14.5164065 13.1751303 14.8506686 13.1840734"></polyline>
                        <polyline id="Fill-3" fill="#D82332" points="6.54099824 13.1840734 6.87525736 13.1751303 7.20730438 13.1507722 7.53271513 13.1086455 7.85370168 13.0507507 8.16816837 12.9774409 8.47821088 12.8884807 8.779405 12.7841054 9.07629137 12.6663154 9.36432936 12.5329927 9.64363539 12.3884912 9.91630514 12.2284569 10.1801265 12.0573614 10.4352159 11.8729689 10.681457 11.6773976 10.916754 11.4706474 11.1432026 11.250718 11.3587072 11.0217277 11.5631513 10.7816763 11.7566513 10.5327994 11.9369952 10.2750971 12.1062787 10.0060983 12.262406 9.73050985 12.4075892 9.44609596 12.5372878 9.15273898 12.6538303 8.85267468 12.7550045 8.54602073 12.8429061 8.23265947 12.9154396 7.91482665 12.9726047 7.58816842 13.0144017 7.25927441 13.0386183 6.92367309 13.0474667 6.58371789 13.0386183 6.24588079 13.0144017 5.91251523 12.9726047 5.58362123 12.9154396 5.26131687 12.8429061 4.94348406 12.7550045 4.63247623 12.6538303 4.32570461 12.5372878 4.02787609 12.4075892 3.73675488 12.262406 3.452341 12.1062787 3.1789883 11.9369952 2.91010716 11.7566513 2.6522872 11.5631513 2.40552844 11.3587072 2.16559468 11.1432026 1.9367221 10.916754 1.71879305 10.681457 1.51216054 10.4352159 1.31658922 10.1801265 1.13219676 9.91630514 0.960983603 9.64363539 0.803185083 9.36432936 0.658801203 9.07629137 0.525478516 8.779405 0.40768857 8.47821088 0.30319559 8.16816837 0.214353023 7.85370168 0.140925524 7.53271513 0.083148437 7.20730438 0.0409040905 6.87525736 0.0165459297 6.54099824 0.00760283688 6.20464345 0.0165459297 5.87259643 0.0409040905 5.54718569 0.083148437 5.22387062 0.140925524 4.90952035 0.214353023 4.59947784 0.30319559 4.29607162 0.40768857 3.99918526 0.525478516 3.70893518 0.658801203 3.42741705 0.803185083 3.15486372 0.960983603 2.88871383 1.13219676 2.63362441 1.31658922 2.38738336 1.51216054 2.14987427 1.71879305 1.92342565 1.9367221 1.70570898 2.16559468 1.50126488 2.40552844 1.30776483 2.6522872 1.12532525 2.91010716 0.955925381 3.1789883 0.797585987 3.452341 0.654731254 3.73675488 0.522820567 4.02787609 0.406278116 4.32570461 0.302891805 4.63247623 0.214990156 4.94348406 0.142340316 5.26131687 0.0851751379 5.58362123 0.0433781948 5.91251523 0.0192780076 6.24588079 0.0104296296 6.58371789 0.0192780076 6.92367309 0.0433781948 7.25927441 0.0851751379 7.58816842 0.142340316 7.91482665 0.214990156 8.23265947 0.302891805 8.54602073 0.406278116 8.85267468 0.522820567 9.15273898 0.654731254 9.44609596 0.797585987 9.73050985 0.955925381 10.0060983 1.12532525 10.2750971 1.30776483 10.5327994 1.50126488 10.7816763 1.70570898 11.0217277 1.92342565 11.250718 2.14987427 11.4706474 2.38738336 11.6773976 2.63362441 11.8729689 2.88871383 12.0573614 3.15486372 12.2284569 3.42741705 12.3884912 3.70893518 12.5329927 3.99918526 12.6663154 4.29607162 12.7841054 4.59947784 12.8884807 4.90952035 12.9774409 5.22387062 13.0507507 5.54718569 13.1086455 5.87259643 13.1507722 6.20464345 13.1751303 6.54099824 13.1840734"></polyline>
                    </g>
                </g>
            </g>
        </g>
    </g>
</svg>