<?xml version="1.0" encoding="UTF-8"?>
<svg width="30px" height="9px" viewBox="0 0 30 9" version="1.1" xmlns="http://www.w3.org/2000/svg" xmlns:xlink="http://www.w3.org/1999/xlink">
    <!-- Generator: sketchtool 47 (45396) - http://www.bohemiancoding.com/sketch -->
    <title>F5D2D4F4-D672-44FD-B36E-96FE8F9993B9</title>
    <desc>Created with sketchtool.</desc>
    <defs>
        <linearGradient x1="-0.18041958%" y1="50%" x2="100%" y2="50%" id="linearGradient-1">
            <stop stop-color="#00B4E6" offset="0%"></stop>
            <stop stop-color="#088CCB" offset="100%"></stop>
        </linearGradient>
    </defs>
    <g id="Symbols" stroke="none" stroke-width="1" fill="none" fill-rule="evenodd">
        <g id="Organisms/Checkout/Payment/Card-unlogin" transform="translate(-256.000000, -31.000000)">
            <g id="Payment-icons">
                <g transform="translate(180.000000, 29.000000)">
                    <g id="Mir" transform="translate(76.000000, 2.000000)">
                        <path d="M26.6326531,0 L20.9387755,0 C21.244898,1.99285714 23.0816327,3.85714286 25.1020408,3.85714286 L29.6326531,3.85714286 C29.6938776,3.66428571 29.6938776,3.40714286 29.6938776,3.21428571 C29.6938776,1.41428571 28.3469388,0 26.6326531,0 Z" id="path10" fill="url(#linearGradient-1)"></path>
                        <path d="M21.4285714,4.17857143 L21.4285714,9 L24.1836735,9 L24.1836735,6.42857143 L26.6326531,6.42857143 C27.9795918,6.42857143 29.1428571,5.46428571 29.5102041,4.17857143 L21.4285714,4.17857143 Z" id="path12" fill="#4DB45F"></path>
                        <path d="M11.6326531,0 L11.6326531,9 L14.0816327,9 C14.0816327,9 14.6938776,9 15,8.35714286 C16.6530612,4.88571429 17.1428571,3.85714286 17.1428571,3.85714286 L17.4489796,3.85714286 L17.4489796,9 L20.2040816,9 L20.2040816,0 L17.755102,0 C17.755102,0 17.1428571,0.0642857143 16.8367347,0.642857143 C15.4285714,3.6 14.6938776,5.14285714 14.6938776,5.14285714 L14.3877551,5.14285714 L14.3877551,0 L11.6326531,0 Z" id="path14" fill="#4DB45F"></path>
                        <path d="M0,9 L0,0 L2.75510204,0 C2.75510204,0 3.55102041,0 3.97959184,1.28571429 C5.08163265,4.69285714 5.20408163,5.14285714 5.20408163,5.14285714 C5.20408163,5.14285714 5.44897959,4.30714286 6.42857143,1.28571429 C6.85714286,0 7.65306122,0 7.65306122,0 L10.4081633,0 L10.4081633,9 L7.65306122,9 L7.65306122,4.17857143 L7.34693878,4.17857143 L5.81632653,9 L4.59183673,9 L3.06122449,4.17857143 L2.75510204,4.17857143 L2.75510204,9 L0,9 Z" id="path16" fill="#4DB45F"></path>
                    </g>
                </g>
            </g>
        </g>
    </g>
</svg>