<?xml version="1.0" encoding="UTF-8"?>
<svg width="30px" height="10px" viewBox="0 0 30 10" version="1.1" xmlns="http://www.w3.org/2000/svg" xmlns:xlink="http://www.w3.org/1999/xlink">
    <!-- Generator: sketchtool 47 (45396) - http://www.bohemiancoding.com/sketch -->
    <title>3B4A65A2-17FB-409E-8EE5-91ACF5E63BD2</title>
    <desc>Created with sketchtool.</desc>
    <defs></defs>
    <g id="Symbols" stroke="none" stroke-width="1" fill="none" fill-rule="evenodd">
        <g id="Organisms/Checkout/Payment/Card-unlogin" transform="translate(-180.000000, -31.000000)">
            <g id="Payment-icons">
                <g transform="translate(180.000000, 29.000000)">
                    <g id="Visa" transform="translate(0.000000, 2.000000)">
                        <polyline id="Fill-1" fill="#005C9C" points="12.98375 9.70975 10.5505 9.70975 12.07125 0.36375 14.50475 0.36375 12.98375 9.70975"></polyline>
                        <path d="M8.5035,0.36375 L6.1835,6.79175 L5.90925,5.4075 L5.9095,5.408 L5.0905,1.2055 C5.0905,1.2055 4.99175,0.36375 3.93625,0.36375 L0.1015,0.36375 L0.05675,0.52175 C0.05675,0.52175 1.22975,0.76575 2.60175,1.5905 L4.71575,9.70975 L7.251,9.70975 L11.12225,0.36375 L8.5035,0.36375" id="Fill-2" fill="#005C9C"></path>
                        <path d="M24.96475,6.40375 L26.2435,2.906 L26.96275,6.40375 L24.96475,6.40375 Z M27.64225,9.70975 L29.8765,9.70975 L27.9285,0.36375 L25.97225,0.36375 C25.06875,0.36375 24.849,1.06025 24.849,1.06025 L21.22025,9.70975 L23.75625,9.70975 L24.26375,8.32175 L27.357,8.32175 L27.64225,9.70975 L27.64225,9.70975 Z" id="Fill-3" fill="#005C9C"></path>
                        <path d="M21.4105,2.61125 L21.7575,0.604 C21.7575,0.604 20.686,0.1965 19.569,0.1965 C18.3615,0.1965 15.49425,0.7245 15.49425,3.2905 C15.49425,5.70525 18.8595,5.73525 18.8595,7.003 C18.8595,8.27075 15.841,8.04425 14.845,7.2445 L14.483,9.34275 C14.483,9.34275 15.56925,9.87075 17.22975,9.87075 C18.89,9.87075 21.39525,9.0105 21.39525,6.671 C21.39525,4.241 17.9995,4.01475 17.9995,2.95825 C17.9995,1.90175 20.36925,2.0375 21.4105,2.61125" id="Fill-4" fill="#005C9C"></path>
                        <path d="M5.9095,5.408 L5.0905,1.2055 C5.0905,1.2055 4.99175,0.36375 3.93625,0.36375 L0.1015,0.36375 L0.05675,0.52175 C0.05675,0.52175 1.9,0.904 3.66825,2.335 C5.35825,3.703 5.9095,5.408 5.9095,5.408" id="Fill-5" fill="#EE9F3F"></path>
                    </g>
                </g>
            </g>
        </g>
    </g>
</svg>